<?xml version="1.0" encoding="UTF-8"?>
<svg version="1.1" xmlns="http://www.w3.org/2000/svg" width="1536" height="1024">
<path d="M0 0 C506.88 0 1013.76 0 1536 0 C1536 337.92 1536 675.84 1536 1024 C1029.12 1024 522.24 1024 0 1024 C0 686.08 0 348.16 0 0 Z " fill="#030303" transform="translate(0,0)"/>
<path d="M0 0 C5.85059115 3.408164 11.73223355 6.76108405 17.61611938 10.11132812 C27.88884242 15.96203333 38.12630663 21.87044616 48.32931519 27.8420105 C55.55827594 32.07121877 62.81147785 36.25678476 70.07223511 40.43112183 C80.10213217 46.20078342 90.06299128 52.07943196 100.00411987 58.00045776 C107.53586111 62.47424368 115.11632954 66.85005977 122.73495483 71.17358398 C132.17820097 76.53448864 141.58256492 81.95315838 150.88473511 87.55612183 C151.78997925 88.09511108 152.69522339 88.63410034 153.62789917 89.18942261 C172.38056641 100.58775854 186.94285133 115.68476685 193.25973511 137.05612183 C193.50610246 137.86847447 193.75246981 138.68082712 194.00630283 139.51779652 C196.8213702 149.98652994 196.69049087 160.21226177 196.66378784 170.9826355 C196.66949985 173.07355105 196.67646731 175.1644635 196.68458557 177.25537109 C196.70244382 182.90236941 196.70136198 188.54921169 196.69564319 194.1962297 C196.69253956 198.92726155 196.69865706 203.65826394 196.70468193 208.38929158 C196.71870258 219.56154472 196.71718741 230.73372135 196.70578003 241.90597534 C196.69431151 253.39112146 196.70835896 264.87603371 196.7351765 276.36114901 C196.75740939 286.25716859 196.76395354 296.15311517 196.75810009 306.04915792 C196.75474619 311.94389753 196.75704019 317.83848743 196.77435112 323.7332058 C196.78993869 329.28281832 196.78573494 334.83208762 196.76704597 340.38168716 C196.76339203 342.40434649 196.76637377 344.42703191 196.77693176 346.44966698 C196.85726433 363.1286276 195.40184347 379.13690562 187.25973511 394.05612183 C186.84207886 394.86952026 186.42442261 395.6829187 185.99411011 396.52096558 C181.87362079 404.01599356 176.21883205 410.01115893 170.25973511 416.05612183 C169.61262573 416.71612183 168.96551636 417.37612183 168.29879761 418.05612183 C162.11875182 423.88533532 154.57732473 427.84962924 147.25973511 432.05612183 C145.28952239 433.19516693 143.3194823 434.33451068 141.34957886 435.47409058 C136.90697562 438.04131875 132.46108999 440.60276711 128.01364136 443.16159058 C121.74841528 446.76943805 115.50116507 450.40730179 109.25973511 454.05612183 C97.71261822 460.80343607 86.1307125 467.48951635 74.54196167 474.16500854 C69.11313572 477.29292329 63.68651504 480.42465914 58.25973511 483.55612183 C51.73740236 487.31976102 45.21459749 491.08256804 38.68942261 494.84127808 C29.13568465 500.3462438 19.58616536 505.85717256 10.07003784 511.42697144 C-53.02328908 548.34573957 -53.02328908 548.34573957 -83.17776489 540.55612183 C-106.40143308 532.53941074 -127.6249451 517.52964998 -148.62991333 505.04074097 C-159.51886839 498.57375634 -170.48541728 492.24530941 -181.46682739 485.9369812 C-196.08520812 477.53751781 -210.6900856 469.11778449 -225.20950317 460.54830933 C-230.79915228 457.25254091 -236.39422509 453.96602263 -241.99026489 450.68112183 C-242.61662842 450.31320526 -243.24299194 449.9452887 -243.88833618 449.56622314 C-251.11235002 445.32440471 -258.35404073 441.12021995 -265.64627075 436.99630737 C-277.97048319 430.02493273 -289.56839022 423.05559184 -299.74026489 413.05612183 C-300.78827271 412.02744995 -300.78827271 412.02744995 -301.85745239 410.97799683 C-310.56073418 401.83447121 -316.7276902 390.30029916 -319.74026489 378.05612183 C-319.90669809 377.40135203 -320.07313129 376.74658224 -320.24460793 376.07197094 C-322.40390121 366.19757607 -322.03648977 356.19276433 -322.03079224 346.1413269 C-322.03678412 344.02775843 -322.04359117 341.91419213 -322.05114746 339.80062866 C-322.06874801 334.08343412 -322.07350034 328.36629953 -322.07477903 322.64908051 C-322.07620463 319.07004509 -322.08048196 315.4910247 -322.08577347 311.91199303 C-322.10425447 299.40558283 -322.11244655 286.89921515 -322.11087036 274.39279175 C-322.10966968 262.76792101 -322.13076283 251.14323614 -322.16235769 239.51841241 C-322.18858096 229.51037124 -322.19923511 219.50239055 -322.19795954 209.49431533 C-322.19745167 203.52917699 -322.20303802 197.56420397 -322.22431564 191.59910011 C-322.24380002 185.98387387 -322.2437531 180.36896891 -322.22928238 174.75373077 C-322.22720576 172.70442671 -322.23182591 170.65510199 -322.2440033 168.60583305 C-322.38663073 142.92011679 -316.09557203 121.7785351 -297.74026489 103.05612183 C-297.04932739 102.32909058 -296.35838989 101.60205933 -295.64651489 100.85299683 C-287.52764649 92.90565381 -277.52764101 87.65706357 -267.74026489 82.05612183 C-266.14021606 81.136698 -266.14021606 81.136698 -264.50784302 80.19869995 C-258.64857829 76.83360459 -252.78145578 73.48270385 -246.90823364 70.14205933 C-240.06363907 66.24822757 -233.2438064 62.31222157 -226.42776489 58.36862183 C-218.24400314 53.63683418 -210.03843344 48.94697633 -201.80276489 44.30612183 C-192.6129233 39.12748399 -183.4723551 33.86988184 -174.35159302 28.57077026 C-168.19235461 24.99822772 -162.02148138 21.44577977 -155.85305786 17.88912964 C-150.26930665 14.66939127 -144.68672191 11.44768372 -139.10745239 8.22018433 C-132.65695145 4.48971645 -126.20068958 0.76937515 -119.74026489 -2.94387817 C-118.68516724 -3.55102661 -117.63006958 -4.15817505 -116.54299927 -4.78372192 C-113.46614823 -6.55115334 -110.38518389 -8.31117898 -107.30276489 -10.06887817 C-106.39824585 -10.58917603 -105.49372681 -11.10947388 -104.5617981 -11.64553833 C-65.31107196 -33.93607416 -35.98148987 -20.98270574 0 0 Z " fill="#040404" transform="translate(829.7402648925781,249.94387817382813)"/>
<path d="M0 0 C5.85059115 3.408164 11.73223355 6.76108405 17.61611938 10.11132812 C27.88884242 15.96203333 38.12630663 21.87044616 48.32931519 27.8420105 C55.55827594 32.07121877 62.81147785 36.25678476 70.07223511 40.43112183 C80.10213217 46.20078342 90.06299128 52.07943196 100.00411987 58.00045776 C107.53586111 62.47424368 115.11632954 66.85005977 122.73495483 71.17358398 C132.17820097 76.53448864 141.58256492 81.95315838 150.88473511 87.55612183 C151.78997925 88.09511108 152.69522339 88.63410034 153.62789917 89.18942261 C172.38056641 100.58775854 186.94285133 115.68476685 193.25973511 137.05612183 C193.50610246 137.86847447 193.75246981 138.68082712 194.00630283 139.51779652 C196.8213702 149.98652994 196.69049087 160.21226177 196.66378784 170.9826355 C196.66949985 173.07355105 196.67646731 175.1644635 196.68458557 177.25537109 C196.70244382 182.90236941 196.70136198 188.54921169 196.69564319 194.1962297 C196.69253956 198.92726155 196.69865706 203.65826394 196.70468193 208.38929158 C196.71870258 219.56154472 196.71718741 230.73372135 196.70578003 241.90597534 C196.69431151 253.39112146 196.70835896 264.87603371 196.7351765 276.36114901 C196.75740939 286.25716859 196.76395354 296.15311517 196.75810009 306.04915792 C196.75474619 311.94389753 196.75704019 317.83848743 196.77435112 323.7332058 C196.78993869 329.28281832 196.78573494 334.83208762 196.76704597 340.38168716 C196.76339203 342.40434649 196.76637377 344.42703191 196.77693176 346.44966698 C196.85726433 363.1286276 195.40184347 379.13690562 187.25973511 394.05612183 C186.84207886 394.86952026 186.42442261 395.6829187 185.99411011 396.52096558 C181.87362079 404.01599356 176.21883205 410.01115893 170.25973511 416.05612183 C169.61262573 416.71612183 168.96551636 417.37612183 168.29879761 418.05612183 C162.11875182 423.88533532 154.57732473 427.84962924 147.25973511 432.05612183 C145.28952239 433.19516693 143.3194823 434.33451068 141.34957886 435.47409058 C136.90697562 438.04131875 132.46108999 440.60276711 128.01364136 443.16159058 C121.74841528 446.76943805 115.50116507 450.40730179 109.25973511 454.05612183 C97.71261822 460.80343607 86.1307125 467.48951635 74.54196167 474.16500854 C69.11313572 477.29292329 63.68651504 480.42465914 58.25973511 483.55612183 C51.73740236 487.31976102 45.21459749 491.08256804 38.68942261 494.84127808 C29.13568465 500.3462438 19.58616536 505.85717256 10.07003784 511.42697144 C-53.02328908 548.34573957 -53.02328908 548.34573957 -83.17776489 540.55612183 C-106.40143308 532.53941074 -127.6249451 517.52964998 -148.62991333 505.04074097 C-159.51886839 498.57375634 -170.48541728 492.24530941 -181.46682739 485.9369812 C-196.08520812 477.53751781 -210.6900856 469.11778449 -225.20950317 460.54830933 C-230.79915228 457.25254091 -236.39422509 453.96602263 -241.99026489 450.68112183 C-242.61662842 450.31320526 -243.24299194 449.9452887 -243.88833618 449.56622314 C-251.11235002 445.32440471 -258.35404073 441.12021995 -265.64627075 436.99630737 C-277.97048319 430.02493273 -289.56839022 423.05559184 -299.74026489 413.05612183 C-300.78827271 412.02744995 -300.78827271 412.02744995 -301.85745239 410.97799683 C-310.56073418 401.83447121 -316.7276902 390.30029916 -319.74026489 378.05612183 C-319.90669809 377.40135203 -320.07313129 376.74658224 -320.24460793 376.07197094 C-322.40390121 366.19757607 -322.03648977 356.19276433 -322.03079224 346.1413269 C-322.03678412 344.02775843 -322.04359117 341.91419213 -322.05114746 339.80062866 C-322.06874801 334.08343412 -322.07350034 328.36629953 -322.07477903 322.64908051 C-322.07620463 319.07004509 -322.08048196 315.4910247 -322.08577347 311.91199303 C-322.10425447 299.40558283 -322.11244655 286.89921515 -322.11087036 274.39279175 C-322.10966968 262.76792101 -322.13076283 251.14323614 -322.16235769 239.51841241 C-322.18858096 229.51037124 -322.19923511 219.50239055 -322.19795954 209.49431533 C-322.19745167 203.52917699 -322.20303802 197.56420397 -322.22431564 191.59910011 C-322.24380002 185.98387387 -322.2437531 180.36896891 -322.22928238 174.75373077 C-322.22720576 172.70442671 -322.23182591 170.65510199 -322.2440033 168.60583305 C-322.38663073 142.92011679 -316.09557203 121.7785351 -297.74026489 103.05612183 C-297.04932739 102.32909058 -296.35838989 101.60205933 -295.64651489 100.85299683 C-287.52764649 92.90565381 -277.52764101 87.65706357 -267.74026489 82.05612183 C-266.14021606 81.136698 -266.14021606 81.136698 -264.50784302 80.19869995 C-258.64857829 76.83360459 -252.78145578 73.48270385 -246.90823364 70.14205933 C-240.06363907 66.24822757 -233.2438064 62.31222157 -226.42776489 58.36862183 C-218.24400314 53.63683418 -210.03843344 48.94697633 -201.80276489 44.30612183 C-192.6129233 39.12748399 -183.4723551 33.86988184 -174.35159302 28.57077026 C-168.19235461 24.99822772 -162.02148138 21.44577977 -155.85305786 17.88912964 C-150.26930665 14.66939127 -144.68672191 11.44768372 -139.10745239 8.22018433 C-132.65695145 4.48971645 -126.20068958 0.76937515 -119.74026489 -2.94387817 C-118.68516724 -3.55102661 -117.63006958 -4.15817505 -116.54299927 -4.78372192 C-113.46614823 -6.55115334 -110.38518389 -8.31117898 -107.30276489 -10.06887817 C-106.39824585 -10.58917603 -105.49372681 -11.10947388 -104.5617981 -11.64553833 C-65.31107196 -33.93607416 -35.98148987 -20.98270574 0 0 Z M-94.17776489 21.55612183 C-96.29049891 22.81745557 -98.40379029 24.07785613 -100.51760864 25.33737183 C-101.56416626 25.96514526 -102.61072388 26.5929187 -103.68899536 27.23971558 C-108.17086995 29.90775422 -112.70264281 32.48444027 -117.24026489 35.05612183 C-124.68966816 39.29293018 -132.09716528 43.59690519 -139.49026489 47.93112183 C-148.72286431 53.33963813 -158.030265 58.59952132 -167.37942505 63.80343628 C-175.59962055 68.38991863 -183.73542388 73.10984125 -191.85476685 77.87203979 C-201.50269374 83.52288924 -211.23875132 89.01208672 -220.98049927 94.49899292 C-227.10831254 97.95645869 -233.22031028 101.44103324 -239.31838989 104.95065308 C-243.20747242 107.18809897 -247.11751755 109.38437475 -251.03713989 111.56784058 C-266.38248798 119.93729228 -266.38248798 119.93729228 -278.74026489 132.05612183 C-279.50403442 133.03065308 -279.50403442 133.03065308 -280.28323364 134.02487183 C-288.55505776 145.86255561 -288.32305226 159.03560161 -288.27371216 172.84078979 C-288.28077994 174.92819831 -288.28952855 177.01560171 -288.29981995 179.10299683 C-288.32222813 184.74362696 -288.31939408 190.38397536 -288.31049848 196.02463293 C-288.30537018 200.74605826 -288.31269614 205.46743151 -288.31997055 210.18885148 C-288.33694265 221.33361987 -288.33343113 232.47825126 -288.31668091 243.62301636 C-288.2997641 255.09293673 -288.31559445 266.56247639 -288.34790379 278.03235519 C-288.37465625 287.90622347 -288.38186035 297.77997365 -288.37338871 307.65387452 C-288.3684758 313.53958789 -288.3705863 319.42507234 -288.39117622 325.31075668 C-288.40962208 330.84810423 -288.40346599 336.38490712 -288.37897682 341.92222595 C-288.37399704 343.94494993 -288.3773843 345.96771606 -288.39012527 347.99040604 C-288.48049326 363.57965806 -287.10671321 377.23229446 -275.74026489 389.05612183 C-269.18003711 395.64020188 -261.90388056 400.16081361 -253.80276489 404.61862183 C-252.56475698 405.31121396 -251.3274653 406.00508774 -250.09085083 406.70016479 C-247.55258069 408.1261234 -245.01182272 409.547485 -242.4692688 410.96578979 C-236.77737111 414.14807721 -231.13441153 417.41512446 -225.49026489 420.68112183 C-223.88743652 421.60646729 -223.88743652 421.60646729 -222.25222778 422.55050659 C-214.08489224 427.26832279 -205.93686387 432.01885203 -197.79373169 436.77828979 C-190.3122547 441.1479802 -182.81080464 445.48225652 -175.30276489 449.80612183 C-167.61076318 454.2362116 -159.93419495 458.68889742 -152.29373169 463.20724487 C-145.76305419 467.06106486 -139.18808317 470.83726174 -132.61526489 474.61862183 C-125.68576442 478.60588332 -118.76455671 482.5990834 -111.92776489 486.74362183 C-105.93541461 490.35554364 -99.91563133 493.91713975 -93.86526489 497.43112183 C-92.56238525 498.20008789 -92.56238525 498.20008789 -91.23318481 498.98458862 C-85.87550616 502.07597177 -80.67332878 504.32469478 -74.74026489 506.05612183 C-73.75026489 506.38612183 -72.76026489 506.71612183 -71.74026489 507.05612183 C-54.08448954 508.51342392 -41.46091026 501.69728498 -26.74026489 493.05612183 C-24.80308007 491.92927774 -22.86557332 490.80298693 -20.92776489 489.67721558 C-17.91288012 487.92252204 -14.89991636 486.16478393 -11.8911438 484.39962769 C-4.90010649 480.29848034 2.13239048 476.27862607 9.19723511 472.30612183 C16.36893704 468.27113882 23.50131906 464.18277896 30.58248901 459.99118042 C51.85082199 447.41559943 73.36659995 435.25324033 94.83297729 423.01950073 C95.42308594 422.6831813 96.01319458 422.34686188 96.6211853 422.00035095 C97.81151047 421.32195545 99.00185874 420.64360049 100.19223022 419.96528625 C103.13060962 418.29021145 106.06738478 416.61242494 109.00094604 414.92892456 C114.65180537 411.68611096 120.3116663 408.46374925 126.00192261 405.29049683 C142.39597762 396.07307966 154.74770589 387.82644611 160.68161011 369.19674683 C162.09176967 363.97534522 162.40817187 359.04135325 162.40690613 353.64584351 C162.41242116 352.37912552 162.41242116 352.37912552 162.41804761 351.08681726 C162.42905693 348.25821988 162.43292365 345.42965928 162.43673706 342.6010437 C162.4430039 340.57216272 162.44965089 338.54328288 162.45664978 336.5144043 C162.47767024 329.8512349 162.48805181 323.18806534 162.49801636 316.52487183 C162.50206497 314.22794076 162.50618193 311.93100981 162.51036644 309.63407898 C162.52941542 298.8394879 162.54364583 288.04490363 162.55197841 277.25029898 C162.56174342 264.80662721 162.58804507 252.36313367 162.6284793 239.91952467 C162.65868702 230.29127337 162.67345179 220.66307301 162.67675942 211.03477526 C162.679105 205.28928242 162.68800117 199.54398004 162.7132206 193.79853821 C162.73658709 188.38778473 162.74070007 182.97734597 162.73045921 177.56655502 C162.72996579 175.58855515 162.73622861 173.61053932 162.75001526 171.63258743 C162.84825118 156.69414728 161.78568033 144.28309456 152.25973511 132.05612183 C151.63518433 131.15313354 151.63518433 131.15313354 150.99801636 130.23190308 C146.4175823 124.11090261 139.76032756 120.78581073 133.25973511 117.05612183 C131.37785913 115.96300091 129.4963814 114.86919425 127.61520386 113.77487183 C115.56517063 106.78307423 103.46196972 99.88406257 91.3605957 92.98168945 C82.27520469 87.79819395 73.22499981 82.55698844 64.19674683 77.27462769 C56.90044607 73.00705997 49.58451405 68.77460365 42.25973511 64.55612183 C30.89221635 58.00729562 19.55409762 51.40932247 8.22750854 44.79000854 C5.24154582 43.04549495 2.25472223 41.3024656 -0.73245239 39.56002808 C-1.72454712 38.98115845 -2.71664185 38.40228882 -3.73880005 37.80587769 C-5.72985846 36.64515574 -7.72171337 35.48579891 -9.71438599 34.32785034 C-14.8846744 31.32067637 -20.03557707 28.28576935 -25.16213989 25.20455933 C-26.22174927 24.5729187 -27.28135864 23.94127808 -28.37307739 23.29049683 C-30.3787074 22.09415612 -32.37917853 20.88910131 -34.37307739 19.67330933 C-43.24300868 14.4060112 -52.29550181 10.46908213 -62.74026489 10.55612183 C-63.97776489 10.54580933 -65.21526489 10.53549683 -66.49026489 10.52487183 C-76.71301365 11.35438486 -85.60021173 16.32002512 -94.17776489 21.55612183 Z " fill="#FBFBFA" transform="translate(829.7402648925781,249.94387817382813)"/>
<path d="M0 0 C9.53073466 7.79964204 15.56057056 18.14915927 16.94140625 30.44921875 C17.42469831 40.13065007 14.59762618 49.98441052 8.30078125 57.421875 C7.76839844 58.00453125 7.23601562 58.5871875 6.6875 59.1875 C6.18605469 59.79078125 5.68460938 60.3940625 5.16796875 61.015625 C-1.20722393 68.15087714 -10.83141416 72.89747931 -20.3125 74.1875 C-21.69211914 74.15716675 -21.69211914 74.15716675 -23.09960938 74.1262207 C-29.22468913 74.03559311 -29.22468913 74.03559311 -34.3125 77.02368164 C-36.03727509 79.62748962 -37.44027009 82.25685498 -38.8125 85.0625 C-39.90851819 87.10054222 -41.00752892 89.13697766 -42.109375 91.171875 C-42.64626953 92.19345703 -43.18316406 93.21503906 -43.73632812 94.26757812 C-45.97706323 98.41863014 -48.49393053 102.35903765 -51.0625 106.3125 C-56.10569948 114.19504797 -60.97270178 122.17933015 -65.8125 130.1875 C-71.09678127 138.92885019 -76.43775109 147.62638771 -81.92797852 156.24047852 C-86.39679409 163.27030727 -90.70468222 170.39452837 -94.99902344 177.53198242 C-97.94343481 182.39814361 -100.95223492 187.19693973 -104.125 191.91796875 C-105.0377771 193.28127319 -105.0377771 193.28127319 -105.96899414 194.67211914 C-107.1294539 196.39252658 -108.30256845 198.10448635 -109.48999023 199.80639648 C-110.00762939 200.57411377 -110.52526855 201.34183105 -111.05859375 202.1328125 C-111.74973267 203.13078857 -111.74973267 203.13078857 -112.45483398 204.14892578 C-113.98654147 207.78961963 -112.3929782 210.92670223 -111.2734375 214.5546875 C-108.22177725 226.09145185 -110.15316781 238.22570141 -115.6328125 248.71484375 C-121.85709562 258.66349299 -129.92207508 265.51165649 -140.9375 269.5 C-153.9525315 272.175745 -165.46878649 270.11910273 -176.5625 263.0625 C-185.11258374 256.67029453 -190.40807427 247.66184154 -192.3125 237.1875 C-192.61307454 233.81028987 -192.71769023 230.45220252 -192.75 227.0625 C-192.76023193 226.23959473 -192.77046387 225.41668945 -192.78100586 224.56884766 C-192.71543197 219.96400142 -192.11692644 216.48804599 -190.421875 212.1953125 C-189.4563227 209.20474612 -189.12108679 207.76260627 -190.12133789 204.75732422 C-191.64154973 202.09914344 -193.32023526 199.66138761 -195.125 197.1875 C-196.44427341 195.25586135 -197.76055805 193.32217884 -199.07421875 191.38671875 C-199.7707959 190.37915527 -200.46737305 189.3715918 -201.18505859 188.33349609 C-204.78902433 183.00406041 -208.09919736 177.4981909 -211.4375 172 C-216.11439217 164.36197208 -220.8244596 156.74844975 -225.625 149.1875 C-229.8072506 142.59939461 -233.90851639 135.96764625 -237.96264648 129.30004883 C-242.44845119 121.93556782 -246.99305722 114.60703794 -251.62426758 107.33300781 C-254.80943583 102.31053687 -257.84519791 97.27850169 -260.6328125 92.0234375 C-265.49492654 82.02768182 -265.49492654 82.02768182 -274.03515625 75.8046875 C-277.86392723 75.62551816 -281.49545411 75.89230418 -285.3125 76.1875 C-296.21818678 74.18306906 -305.62269854 68.24430344 -312.25 59.375 C-319.27875627 48.18981575 -320.87571566 37.20664844 -319.3125 24.1875 C-317.12092329 14.94651985 -311.91118776 7.03238196 -304.04296875 1.62890625 C-301.83791931 0.36297497 -299.6230386 -0.75315559 -297.3125 -1.8125 C-296.68085937 -2.11929687 -296.04921875 -2.42609375 -295.3984375 -2.7421875 C-286.33008915 -6.93679797 -276.21648402 -7.0068918 -266.82421875 -3.8515625 C-256.85438862 0.27281513 -248.66838069 6.76114998 -243.3125 16.1875 C-243.3125 17.1775 -243.3125 18.1675 -243.3125 19.1875 C-183.2525 19.1875 -123.1925 19.1875 -61.3125 19.1875 C-60.9825 17.5375 -60.6525 15.8875 -60.3125 14.1875 C-55.36299783 4.49401132 -47.6226826 -2.3696024 -37.3125 -5.8125 C-24.59348317 -9.08561487 -10.78558263 -7.56207203 0 0 Z " fill="#FCFCFB" transform="translate(916.3125,401.8125)"/>
<path d="M0 0 C58.74 0 117.48 0 178 0 C182 9 182 9 181 13 C180.03232945 14.70475923 179.00027938 16.37354603 177.9296875 18.015625 C177.28837891 19.0068335 176.64707031 19.99804199 175.98632812 21.01928711 C175.28958984 22.08542236 174.59285156 23.15155762 173.875 24.25 C172.40100877 26.52564214 170.93121171 28.80398638 169.4609375 31.08203125 C168.89877533 31.95131004 168.89877533 31.95131004 168.32525635 32.83815002 C164.66372846 38.50478386 161.07116335 44.21350768 157.5 49.9375 C156.88954834 50.91541504 156.27909668 51.89333008 155.65014648 52.90087891 C151.047272 60.28933904 146.49027497 67.7056022 141.9375 75.125 C136.4537252 84.06100772 130.89391665 92.94245782 125.24267578 101.7734375 C120.05543087 109.88510509 114.95783881 118.05151314 109.88452148 126.23486328 C108.99228882 127.66934814 108.99228882 127.66934814 108.08203125 129.1328125 C107.55843018 129.97730957 107.0348291 130.82180664 106.49536133 131.69189453 C106.00189209 132.45356934 105.50842285 133.21524414 105 134 C104.34632446 135.11761719 104.34632446 135.11761719 103.67944336 136.2578125 C100.62500637 139.4263635 96.6602091 138.72539303 92.48046875 138.83984375 C91.24941406 138.85144531 90.01835938 138.86304688 88.75 138.875 C87.53441406 138.94074219 86.31882812 139.00648438 85.06640625 139.07421875 C76.33616539 139.17894356 76.33616539 139.17894356 72.77783203 136.03930664 C70.93387283 133.44530934 69.45321117 130.82967526 68 128 C67.05816763 126.45690287 66.10794929 124.91888522 65.1484375 123.38671875 C64.22068286 121.82225028 63.2963085 120.25577323 62.375 118.6875 C58.23061266 111.70906383 54.03366326 104.76886584 49.75 97.875 C45.48158623 91.00526868 41.23026716 84.12561224 36.99902344 77.23291016 C31.25770648 67.88117241 25.48942415 58.55057313 19.59545898 49.29418945 C16.62942344 44.6224948 13.7202499 39.91868804 10.84375 35.19140625 C10.11719071 33.99999804 9.39062821 32.80859179 8.6640625 31.6171875 C7.24628252 29.29151971 5.83607875 26.96147397 4.4296875 24.62890625 C3.78257812 23.56671875 3.13546875 22.50453125 2.46875 21.41015625 C1.89576172 20.46277588 1.32277344 19.51539551 0.73242188 18.53930664 C-0.97177871 16.04136551 -2.79262969 14.05717 -5 12 C-3.65731345 7.66208962 -2.06787321 4.13574643 0 0 Z " fill="#050505" transform="translate(676,451)"/>
</svg>
