<svg version="1.2" xmlns="http://www.w3.org/2000/svg" viewBox="0 0 1536 1024" width="1536" height="1024">
	<title>logo</title>
	<style>
		.s0 { fill: #fbfbfa } 
		.s1 { fill: #fcfcfb } 
		.s2 { fill: #050505 } 
	</style>
	<path class="s0" d="m829.74 249.94q8.78 5.1 17.62 10.12 15.41 8.77 30.71 17.73 10.85 6.33 21.74 12.59c10.03 5.76 19.99 11.64 29.93 17.56q11.3 6.7 22.74 13.18c9.44 5.36 18.84 10.78 28.15 16.38q1.35 0.8 2.74 1.63c18.75 11.4 33.31 26.5 39.63 47.87q0.37 1.21 0.75 2.46c2.81 10.47 2.68 20.7 2.65 31.47q0.01 3.13 0.02 6.27 0.03 8.47 0.02 16.94-0.01 7.1 0 14.19 0.02 16.76 0.01 33.52-0.02 17.23 0.03 34.46 0.03 14.84 0.02 29.68-0.01 8.85 0.01 17.69 0.03 8.32 0 16.65-0.01 3.03 0.01 6.06c0.08 16.68-1.38 32.69-9.52 47.61q-0.62 1.21-1.27 2.46c-4.12 7.5-9.77 13.5-15.73 19.54q-0.97 0.99-1.96 2c-6.18 5.83-13.72 9.79-21.04 14q-2.96 1.71-5.91 3.42-6.66 3.85-13.34 7.69-9.39 5.41-18.75 10.89-17.33 10.11-34.72 20.11-8.14 4.69-16.28 9.39-9.78 5.65-19.57 11.29-14.34 8.24-28.62 16.58c-63.09 36.92-63.09 36.92-93.25 29.13-23.22-8.02-44.44-23.03-65.45-35.52-10.89-6.46-21.86-12.79-32.84-19.1-14.61-8.4-29.22-16.82-43.74-25.39q-8.38-4.94-16.78-9.86-0.93-0.55-1.9-1.12-10.83-6.37-21.76-12.57c-12.32-6.97-23.92-13.94-34.09-23.94-1.05-1.03-1.05-1.03-2.12-2.08-8.7-9.14-14.87-20.68-17.88-32.92q-0.25-0.98-0.5-1.98c-2.16-9.88-1.8-19.88-1.79-29.93q-0.01-3.18-0.02-6.35-0.02-8.57-0.02-17.15-0.01-5.37-0.02-10.73-0.02-18.76-0.02-37.52 0-17.44-0.05-34.88-0.04-15.01-0.04-30.02 0.01-8.95-0.02-17.9-0.03-8.42-0.01-16.84 0-3.08-0.01-6.15c-0.15-25.69 6.14-46.83 24.5-65.55q1.03-1.09 2.09-2.2c8.12-7.95 18.12-13.2 27.91-18.8 1.6-0.92 1.6-0.92 3.23-1.86q8.79-5.04 17.6-10.05 10.26-5.85 20.48-11.78 12.28-7.1 24.63-14.06 13.77-7.78 27.45-15.74 9.24-5.35 18.5-10.68 8.37-4.83 16.74-9.67 9.68-5.59 19.37-11.16 1.57-0.91 3.2-1.84 4.61-2.65 9.24-5.28 1.35-0.78 2.74-1.58c39.25-22.29 68.58-9.34 104.56 11.64zm-94.18 21.56q-3.17 1.89-6.34 3.78-1.56 0.94-3.17 1.9c-4.48 2.67-9.01 5.25-13.55 7.82q-11.17 6.36-22.25 12.88c-9.23 5.4-18.54 10.66-27.89 15.87-8.22 4.58-16.36 9.3-24.47 14.07-9.65 5.65-19.39 11.14-29.13 16.62q-9.19 5.19-18.34 10.45-5.83 3.35-11.72 6.62c-15.34 8.37-15.34 8.37-27.7 20.49-0.76 0.97-0.76 0.97-1.54 1.97-8.27 11.84-8.04 25.01-7.99 38.81q-0.01 3.14-0.03 6.27-0.03 8.46-0.01 16.92 0 7.08-0.01 14.16-0.02 16.72 0 33.44 0.02 17.2-0.03 34.41-0.04 14.81-0.02 29.62 0.01 8.83-0.02 17.65-0.03 8.31 0.01 16.62 0.01 3.03-0.01 6.06c-0.09 15.59 1.28 29.25 12.65 41.07 6.56 6.58 13.84 11.1 21.94 15.56q1.85 1.04 3.71 2.08 3.81 2.14 7.62 4.27c5.69 3.18 11.34 6.45 16.98 9.72 1.6 0.92 1.6 0.92 3.24 1.86q12.25 7.09 24.46 14.23 11.22 6.55 22.49 13.03 11.54 6.63 23.01 13.4c6.53 3.85 13.1 7.63 19.68 11.41 6.92 3.99 13.85 7.98 20.68 12.13q8.99 5.41 18.07 10.69c1.3 0.76 1.3 0.76 2.63 1.55 5.35 3.09 10.56 5.34 16.49 7.07q1.48 0.49 3 1c17.66 1.46 30.28-5.36 45-14q2.91-1.69 5.81-3.38 4.53-2.63 9.04-5.28 10.49-6.14 21.09-12.09 10.76-6.04 21.38-12.31c21.27-12.58 42.79-24.74 64.25-36.98q0.88-0.5 1.79-1.02 1.79-1.01 3.57-2.03 4.41-2.51 8.81-5.04 8.47-4.87 17-9.64c16.4-9.21 28.75-17.46 34.68-36.09 1.41-5.22 1.73-10.15 1.73-15.55 0-1.27 0-1.27 0.01-2.56q0.01-4.24 0.02-8.49 0.01-3.04 0.02-6.08 0.03-10 0.04-19.99 0-3.45 0.01-6.89 0.03-16.19 0.04-32.39 0.02-18.66 0.08-37.33 0.04-14.44 0.05-28.88 0-8.62 0.03-17.24 0.04-8.11 0.02-16.23 0-2.97 0.02-5.93c0.1-14.94-0.96-27.35-10.49-39.58-0.62-0.9-0.62-0.9-1.26-1.82-4.58-6.13-11.24-9.45-17.74-13.18q-2.82-1.64-5.64-3.28c-12.05-6.99-24.16-13.89-36.26-20.79q-13.62-7.78-27.16-15.71-10.95-6.4-21.94-12.72-17.05-9.83-34.03-19.77-4.48-2.61-8.96-5.23-1.48-0.86-3.01-1.75-2.99-1.74-5.97-3.48-7.76-4.5-15.45-9.12-1.58-0.94-3.21-1.92-3.01-1.79-6-3.61c-8.87-5.27-17.93-9.21-28.37-9.12q-1.85-0.02-3.75-0.03c-10.22 0.83-19.11 5.79-27.69 11.03z"/>
	<path class="s1" d="m916.31 401.81c9.53 7.8 15.56 18.15 16.94 30.45 0.49 9.68-2.34 19.54-8.64 26.97q-0.79 0.87-1.61 1.77-0.75 0.9-1.52 1.83c-6.37 7.13-16 11.88-25.48 13.17-1.38-0.03-1.38-0.03-2.79-0.06-6.12-0.09-6.12-0.09-11.21 2.9-1.72 2.6-3.13 5.23-4.5 8.04q-1.64 3.05-3.3 6.1-0.8 1.53-1.62 3.1c-2.24 4.15-4.76 8.09-7.33 12.04-5.04 7.89-9.91 15.87-14.75 23.88-5.28 8.74-10.63 17.44-16.12 26.05-4.46 7.03-8.77 14.16-13.07 21.29-2.94 4.87-5.95 9.67-9.12 14.39-0.92 1.36-0.92 1.36-1.85 2.75q-1.74 2.59-3.52 5.14-0.77 1.14-1.57 2.33c-0.69 0.99-0.69 0.99-1.39 2.01-1.53 3.64 0.06 6.78 1.18 10.41 3.05 11.53 1.12 23.67-4.36 34.16-6.22 9.95-14.29 16.79-25.3 20.78-13.02 2.68-24.54 0.62-35.63-6.43-8.55-6.4-13.85-15.41-15.75-25.88-0.3-3.38-0.41-6.74-0.44-10.12q-0.01-1.23-0.03-2.5c0.07-4.6 0.67-8.08 2.36-12.37 0.97-2.99 1.3-4.43 0.3-7.44-1.52-2.66-3.2-5.1-5-7.57q-1.98-2.9-3.95-5.8-1.04-1.5-2.11-3.05c-3.61-5.33-6.92-10.84-10.25-16.34-4.68-7.64-9.39-15.25-14.19-22.81q-6.27-9.88-12.34-19.89-6.72-11.05-13.66-21.96c-3.19-5.03-6.22-10.06-9.01-15.31-4.86-10-4.86-10-13.4-16.22-3.83-0.18-7.46 0.08-11.28 0.38-10.91-2-20.31-7.94-26.94-16.81-7.03-11.19-8.62-22.17-7.06-35.19 2.19-9.24 7.4-17.16 15.27-22.56 2.2-1.26 4.42-2.38 6.73-3.44q0.94-0.46 1.91-0.93c9.07-4.19 19.19-4.26 28.58-1.11 9.97 4.13 18.15 10.61 23.51 20.04q0 1.48 0 3c60.06 0 120.12 0 182 0q0.49-2.46 1-5c4.95-9.69 12.69-16.56 23-20 12.72-3.27 26.53-1.75 37.31 5.81z"/>
	<path class="s2" d="m676 451c58.74 0 117.48 0 178 0 4 9 4 9 3 13q-1.46 2.55-3.07 5.02-0.96 1.47-1.94 3-1.04 1.59-2.12 3.23-2.2 3.41-4.41 6.83c-0.56 0.87-0.56 0.87-1.13 1.76q-5.49 8.5-10.83 17.1-0.91 1.46-1.85 2.96-6.89 11.09-13.71 22.22-8.22 13.41-16.7 26.65c-5.18 8.12-10.28 16.28-15.36 24.46-0.89 1.44-0.89 1.44-1.8 2.9q-0.78 1.26-1.58 2.56-0.74 1.14-1.5 2.31c-0.65 1.12-0.65 1.12-1.32 2.26-3.05 3.17-7.02 2.47-11.2 2.58q-1.84 0.02-3.73 0.04-1.81 0.09-3.68 0.19c-8.73 0.11-8.73 0.11-12.29-3.03-1.85-2.59-3.33-5.21-4.78-8.04q-1.41-2.31-2.85-4.61-1.39-2.35-2.78-4.7-6.2-10.47-12.62-20.82-6.4-10.3-12.75-20.64c-5.74-9.35-11.51-18.68-17.4-27.94q-4.45-7.01-8.76-14.1-1.09-1.79-2.18-3.57-2.12-3.49-4.23-6.99-0.97-1.59-1.96-3.22-0.86-1.41-1.74-2.87c-1.7-2.5-3.52-4.48-5.73-6.54 1.34-4.34 2.93-7.86 5-12z"/>
</svg>